<?xml version="1.0" encoding="utf-8"?>
<!-- Generator: Adobe Illustrator 21.0.2, SVG Export Plug-In . SVG Version: 6.00 Build 0)  -->
<svg version="1.1" id="Layer_1" xmlns="http://www.w3.org/2000/svg" xmlns:xlink="http://www.w3.org/1999/xlink" x="0px" y="0px"
	 viewBox="0 0 94 37" style="enable-background:new 0 0 94 37;" xml:space="preserve">
<style type="text/css">
	.st0{fill:#FFFFFF;}
	.st1{opacity:0;}
	.st2{enable-background:new    ;}
	.st3{display:none;}
	.st4{font-family:'Roboto-Light';}
	.st5{font-size:8px;}
</style>
<g>
	
		<sodipodi:namedview  bordercolor="#666666" borderopacity="1.0" fit-margin-bottom="0" fit-margin-left="0" fit-margin-right="0" fit-margin-top="0" id="base" inkscape:current-layer="layer1" inkscape:cx="228.90564" inkscape:cy="-146.44644" inkscape:document-units="px" inkscape:pageopacity="0.0" inkscape:pageshadow="2" inkscape:window-height="1000" inkscape:window-maximized="1" inkscape:window-width="1280" inkscape:window-x="0" inkscape:window-y="24" inkscape:zoom="1" pagecolor="#ffffff" showgrid="false">
		</sodipodi:namedview>
	<g id="rect4178">
		<g>
			
				<rect x="31.03" y="2.96" transform="matrix(0.3243 -0.946 0.946 0.3243 17.3759 36.0944)" class="st0" width="5.85" height="5.85"/>
		</g>
		<g class="st1">
			<path class="st0" d="M35.85,9.77l-5.79-1.98L32.05,2l5.79,1.98L35.85,9.77z M30.4,7.62l5.29,1.81l1.81-5.29l-5.29-1.81L30.4,7.62
				z"/>
		</g>
	</g>
	<g id="rect4178-5">
		<g>
			
				<rect x="17.96" y="14.28" transform="matrix(0.9794 -0.2017 0.2017 0.9794 -3.0422 4.5668)" class="st0" width="5.85" height="5.85"/>
		</g>
		<g class="st1">
			<path class="st0" d="M18.51,20.82l-1.23-5.99l5.99-1.23l1.23,5.99L18.51,20.82z M17.59,15.04l1.13,5.47l5.47-1.13l-1.13-5.47
				L17.59,15.04z"/>
		</g>
	</g>
	<g id="rect4178-2">
		<g>
			
				<rect x="34.31" y="19.94" transform="matrix(0.7503 -0.6611 0.6611 0.7503 -5.8171 30.3266)" class="st0" width="5.85" height="5.85"/>
		</g>
		<g class="st1">
			<path class="st0" d="M36.96,27.18l-0.09-0.1l-3.96-4.49l4.59-4.04l4.04,4.59L36.96,27.18z M33.29,22.61l3.69,4.19l4.19-3.69
				l-3.69-4.19L33.29,22.61z"/>
		</g>
	</g>
	<g id="path4278" inkscape:connector-curvature="0">
		<g>
			
				<rect x="22.02" y="11.96" transform="matrix(0.7549 -0.6558 0.6558 0.7549 -1.2329 21.6223)" class="st0" width="12.59" height="1"/>
		</g>
	</g>
	<g id="path4278-0" inkscape:connector-curvature="0">
		<g>
			
				<rect x="33.77" y="8.37" transform="matrix(0.9816 -0.1908 0.1908 0.9816 -2.1675 6.8057)" class="st0" width="1" height="12.58"/>
		</g>
	</g>
	<g id="path4278-09" inkscape:connector-curvature="0">
		<g class="st1">
			<polygon class="st0" points="33.07,8.48 35.47,20.84 35.42,20.79 23.51,16.69 23.56,16.59 33.07,8.33 			"/>
		</g>
		<g>
			
				<rect x="28.96" y="12.44" transform="matrix(0.3257 -0.9455 0.9455 0.3257 2.1509 40.4913)" class="st0" width="1" height="12.59"/>
		</g>
	</g>
	<g class="st2">
		<path class="st0" d="M59.12,22.37h-1.28v-7.21h-8.6v7.21h-1.27V7.33h1.27v6.76h8.6V7.33h1.28V22.37z"/>
		<path class="st0" d="M62.58,7.96c0-0.23,0.08-0.43,0.23-0.59c0.15-0.16,0.36-0.24,0.62-0.24c0.26,0,0.47,0.08,0.63,0.24
			c0.15,0.16,0.23,0.36,0.23,0.59c0,0.23-0.08,0.43-0.23,0.59c-0.15,0.16-0.36,0.24-0.63,0.24c-0.26,0-0.47-0.08-0.62-0.24
			C62.66,8.39,62.58,8.2,62.58,7.96z M64.04,22.37H62.8V11.19h1.24V22.37z"/>
		<path class="st0" d="M74.92,15.41c-0.44,0.65-0.99,1.15-1.64,1.5c-0.65,0.36-1.36,0.53-2.13,0.53c-0.85,0-1.61-0.22-2.26-0.66
			c-0.65-0.44-1.16-1.05-1.52-1.83c-0.36-0.78-0.54-1.63-0.54-2.55c0-0.99,0.19-1.89,0.57-2.71c0.38-0.81,0.92-1.44,1.6-1.9
			c0.69-0.45,1.48-0.68,2.37-0.68c1.51,0,2.68,0.53,3.52,1.59c0.84,1.06,1.26,2.56,1.26,4.5v1.12c0,2.71-0.58,4.75-1.74,6.12
			c-1.16,1.36-2.92,2.05-5.3,2.05h-0.23l0.01-1.07h0.43c1.8-0.03,3.16-0.54,4.1-1.53C74.37,18.89,74.87,17.4,74.92,15.41z
			 M71.3,16.37c0.83,0,1.57-0.25,2.23-0.74c0.66-0.49,1.12-1.13,1.4-1.91v-0.71c0-1.53-0.32-2.71-0.96-3.55
			c-0.64-0.84-1.5-1.26-2.58-1.26c-0.98,0-1.78,0.39-2.41,1.18c-0.63,0.79-0.94,1.78-0.94,2.97c0,1.15,0.3,2.1,0.9,2.87
			C69.55,15.99,70.34,16.37,71.3,16.37z"/>
	</g>
	<g id="layer2" transform="translate(-14.804031,-25.317439)" inkscape:groupmode="layer" inkscape:label="Layer 2" class="st3">
	</g>
</g>
<text transform="matrix(1 0 0 1 2.231 33.7271)" class="st0 st4 st5">Technology Made Simple</text>
</svg>
