<svg id="Layer_1" data-name="Layer 1" xmlns="http://www.w3.org/2000/svg" viewBox="0 0 58.88 25.18">
  <defs>
    <style>
      .cls-1 {
        fill: #fff;
      }

      .cls-2 {
        opacity: 0;
      }

      .cls-3 {
        isolation: isolate;
      }
    </style>
  </defs>
  <title>Hi9 Logo 128x128 white</title>
  <g>
    <g id="rect4178">
      <rect class="cls-1" x="14.03" y="0.96" width="5.85" height="5.85" transform="matrix(0.32, -0.95, 0.95, 0.32, 7.51, 18.66)"/>
      <g class="cls-2">
        <path class="cls-1" d="M18.85,7.77l-5.79-2,2-5.79,5.79,2ZM13.4,5.62l5.29,1.81L20.5,2.15,15.22.34Z" transform="translate(-0.28)"/>
      </g>
    </g>
    <g id="rect4178-5">
      <rect class="cls-1" x="0.96" y="12.28" width="5.85" height="5.85" transform="translate(-3.26 1.1) rotate(-11.64)"/>
      <g class="cls-2">
        <path class="cls-1" d="M1.51,18.82l-1.23-6,6-1.23,1.23,6ZM.59,13l1.13,5.47,5.47-1.13L6.06,11.91Z" transform="translate(-0.28)"/>
      </g>
    </g>
    <g id="rect4178-2">
      <rect class="cls-1" x="17.31" y="17.94" width="5.85" height="5.85" transform="translate(-9.02 18.59) rotate(-41.38)"/>
      <g class="cls-2">
        <path class="cls-1" d="M20,25.18l-.09-.1-4-4.49,4.59-4,4,4.59Zm-3.67-4.57L20,24.81l4.19-3.69-3.69-4.19Z" transform="translate(-0.28)"/>
      </g>
    </g>
    <g id="path4278">
      <rect class="cls-1" x="5.02" y="9.96" width="12.59" height="1" transform="translate(-4.36 9.98) rotate(-40.98)"/>
    </g>
    <g id="path4278-0">
      <rect class="cls-1" x="16.77" y="6.37" width="1" height="12.58" transform="translate(-2.37 3.53) rotate(-11)"/>
    </g>
    <g id="path4278-09">
      <g class="cls-2">
        <polygon class="cls-1" points="15.79 6.49 18.19 18.84 18.14 18.79 6.24 14.69 6.29 14.59 15.79 6.33 15.79 6.49"/>
      </g>
      <rect class="cls-1" x="11.96" y="10.44" width="1" height="12.59" transform="matrix(0.33, -0.95, 0.95, 0.33, -7.7, 23.07)"/>
    </g>
    <g class="cls-3">
      <path class="cls-1" d="M42.12,20.37H40.84V13.16h-8.6v7.21H31v-15h1.27v6.76h8.6V5.33h1.28Z" transform="translate(-0.28)"/>
      <path class="cls-1" d="M45.58,6a.83.83,0,0,1,.23-.59.81.81,0,0,1,.62-.24.81.81,0,0,1,.86.83.8.8,0,0,1-.23.59.84.84,0,0,1-.63.24A.79.79,0,0,1,45.58,6ZM47,20.37H45.8V9.19H47Z" transform="translate(-0.28)"/>
      <path class="cls-1" d="M57.92,13.41a4.66,4.66,0,0,1-1.64,1.5,4.39,4.39,0,0,1-2.13.53,4,4,0,0,1-2.26-.66A4.32,4.32,0,0,1,50.36,13a6,6,0,0,1-.54-2.55,6.28,6.28,0,0,1,.57-2.71A4.5,4.5,0,0,1,52,5.8a4.62,4.62,0,0,1,5.89.91,7.08,7.08,0,0,1,1.26,4.5v1.12q0,4.07-1.74,6.12a6.57,6.57,0,0,1-5.3,2h-.23V19.41h.43a5.5,5.5,0,0,0,4.1-1.53A6.54,6.54,0,0,0,57.92,13.41Zm-3.62,1a3.63,3.63,0,0,0,2.23-.74,4,4,0,0,0,1.4-1.91V11a5.77,5.77,0,0,0-1-3.55A3.07,3.07,0,0,0,54.39,6.2,2.94,2.94,0,0,0,52,7.38a4.62,4.62,0,0,0-.94,3,4.5,4.5,0,0,0,.9,2.87A2.85,2.85,0,0,0,54.3,14.37Z" transform="translate(-0.28)"/>
    </g>
  </g>
</svg>
