<svg id="Layer_1" data-name="Layer 1" xmlns="http://www.w3.org/2000/svg" viewBox="0 0 88.08 34.9">
  <defs>
    <style>
      .cls-1, .cls-4 {
        fill: #fff;
      }

      .cls-2 {
        opacity: 0;
      }

      .cls-3 {
        isolation: isolate;
      }

      .cls-4 {
        font-size: 8px;
        font-family: Roboto-Light, Roboto;
      }

      .cls-5 {
        letter-spacing: -0.05em;
      }
    </style>
  </defs>
  <title>hi9</title>
  <g>
    <g id="rect4178">
      <rect class="cls-1" x="31.03" y="2.96" width="5.85" height="5.85" transform="matrix(0.32, -0.95, 0.95, 0.32, 15.14, 34.09)"/>
      <g class="cls-2">
        <path class="cls-1" d="M35.85,9.77l-5.79-2,2-5.79,5.79,2ZM30.4,7.62l5.29,1.81L37.5,4.15,32.22,2.34Z" transform="translate(-2.23 -2)"/>
      </g>
    </g>
    <g id="rect4178-5">
      <rect class="cls-1" x="17.96" y="14.28" width="5.85" height="5.85" transform="translate(-5.27 2.57) rotate(-11.64)"/>
      <g class="cls-2">
        <path class="cls-1" d="M18.51,20.82l-1.23-6,6-1.23,1.23,6ZM17.59,15l1.13,5.47,5.47-1.13-1.13-5.47Z" transform="translate(-2.23 -2)"/>
      </g>
    </g>
    <g id="rect4178-2">
      <rect class="cls-1" x="34.31" y="19.94" width="5.85" height="5.85" transform="translate(-8.05 28.33) rotate(-41.38)"/>
      <g class="cls-2">
        <path class="cls-1" d="M37,27.18l-.09-.1-4-4.49,4.59-4,4,4.59Zm-3.67-4.57L37,26.81l4.19-3.69-3.69-4.19Z" transform="translate(-2.23 -2)"/>
      </g>
    </g>
    <g id="path4278">
      <rect class="cls-1" x="22.02" y="11.96" width="12.59" height="1" transform="translate(-3.46 19.62) rotate(-40.98)"/>
    </g>
    <g id="path4278-0">
      <rect class="cls-1" x="33.77" y="8.37" width="1" height="12.58" transform="translate(-4.4 4.81) rotate(-11)"/>
    </g>
    <g id="path4278-09">
      <g class="cls-2">
        <polygon class="cls-1" points="30.84 6.49 33.23 18.84 33.19 18.79 21.28 14.69 21.33 14.59 30.84 6.33 30.84 6.49"/>
      </g>
      <rect class="cls-1" x="28.96" y="12.44" width="1" height="12.59" transform="matrix(0.33, -0.95, 0.95, 0.33, -0.08, 38.49)"/>
    </g>
    <g class="cls-3">
      <path class="cls-1" d="M59.12,22.37H57.84V15.16h-8.6v7.21H48v-15h1.27v6.76h8.6V7.33h1.28Z" transform="translate(-2.23 -2)"/>
      <path class="cls-1" d="M62.58,8a.83.83,0,0,1,.23-.59.81.81,0,0,1,.62-.24.81.81,0,0,1,.86.83.8.8,0,0,1-.23.59.84.84,0,0,1-.63.24A.79.79,0,0,1,62.58,8ZM64,22.37H62.8V11.19H64Z" transform="translate(-2.23 -2)"/>
      <path class="cls-1" d="M74.92,15.41a4.66,4.66,0,0,1-1.64,1.5,4.39,4.39,0,0,1-2.13.53,4,4,0,0,1-2.26-.66A4.32,4.32,0,0,1,67.36,15a6,6,0,0,1-.54-2.55,6.28,6.28,0,0,1,.57-2.71A4.5,4.5,0,0,1,69,7.8a4.62,4.62,0,0,1,5.89.91,7.08,7.08,0,0,1,1.26,4.5v1.12q0,4.07-1.74,6.12a6.57,6.57,0,0,1-5.3,2h-.23V21.41h.43a5.5,5.5,0,0,0,4.1-1.53A6.54,6.54,0,0,0,74.92,15.41Zm-3.62,1a3.63,3.63,0,0,0,2.23-.74,4,4,0,0,0,1.4-1.91V13a5.77,5.77,0,0,0-1-3.55A3.07,3.07,0,0,0,71.39,8.2,2.94,2.94,0,0,0,69,9.38a4.62,4.62,0,0,0-.94,3,4.5,4.5,0,0,0,.9,2.87A2.85,2.85,0,0,0,71.3,16.37Z" transform="translate(-2.23 -2)"/>
    </g>
  </g>
  <text class="cls-4" transform="translate(0 32.73)"><tspan class="cls-5">T</tspan><tspan x="4.39" y="0">echnology Made Simple</tspan></text>
</svg>
